<svg width="512" height="123" xmlns="http://www.w3.org/2000/svg" preserveAspectRatio="xMidYMid"><path d="M374.118 80.842c-6.943 6.797-26.434 8.728-24.44-7.52 1.656-13.495 16.348-16.363 32.273-14.414-1.184 7.381-2.542 16.755-7.833 21.934zm-21.934-52.641c-.663 3.723-1.681 7.092-2.506 10.653 7.951-1.993 32.709-8.105 35.095 2.506.792 3.526-.574 7.272-1.567 10.028-22.389-2.121-40.636 1.599-45.435 17.547-3.214 10.682.36 21.194 7.207 24.129 13.187 5.649 29.228-.822 34.781-9.714-.577 3.078-1.123 6.187-.94 10.026h11.594c.123-11.103 1.739-20.091 3.447-30.082 1.456-8.508 4.195-16.931 3.759-24.44-.995-17.197-29.486-11.114-45.434-10.653zm116.249 57.968c-9.07.195-13.58-5.419-13.787-14.726-.361-16.301 6.789-34.411 21.307-36.035 6.76-.756 11.654.816 16.607 2.508-4.547 18.31-2.905 47.799-24.128 48.254zM498.514 0c-1.155 10.125-2.699 19.862-4.699 29.14-33.051-10.461-53.32 13.855-52.956 43.868.072 5.805 1.071 11.561 4.701 15.667 6.256 7.076 24.17 8.768 33.214 2.821 1.752-1.151 3.54-3.246 4.701-4.7.871-1.095 2.256-3.959 2.505-3.135-.474 3.182-1.185 6.127-1.252 9.715h12.22c2.354-33.784 9.637-62.641 15.04-93.376h-13.475zM153.525 81.156c-7.209 7.635-24.931 7.518-26.32-5.328-.606-5.589 1.477-11.45 2.506-17.233 1.041-5.853 1.791-11.469 2.819-16.609 7.1-8.67 27.965-9.716 30.082 4.701 1.837 12.517-3.117 28.145-9.087 34.468zm10.654-52.955c-11.404-4.284-25.303.83-31.328 5.694.021.214-.144.243-.321.259l.321-.259-.007-.054.94-5.64H122.19c-4.831 32.143-10.561 63.387-16.607 94.316h13.473c1.95-12.046 3.239-24.753 5.954-36.034 3.077 11.865 23.169 9.597 31.647 5.014 17.494-9.46 30.987-54.481 7.521-63.296zM228.1 50.762h-31.647c1.001-7.276 7.547-15.273 17.859-15.667 9.707-.371 16.656 3.564 13.787 15.667zm-12.847-23.814c-9.736.749-17.965 3.551-23.814 9.713-7.173 7.558-12.983 24.266-11.281 39.482 2.428 21.708 29.457 20.929 51.075 15.667.367-3.809 1.29-7.066 1.88-10.653-8.906 3.332-24.368 7.984-33.528 2.194-6.915-4.373-6.956-15.446-4.7-25.068 14.529-.462 29.631-.374 44.181 0 .923-6.821 3.565-14.257 1.253-20.993-3.049-8.894-13.961-11.196-25.067-10.34zM96.81 28.201c-.365.052-.341.495-.314.939-2.969 22.203-6.986 43.358-11.28 64.236h13.473c3.238-22.352 6.946-44.233 11.594-65.175H96.81zm351.57.313c-11.909-5.953-21.822 4.037-25.693 10.027 1.102-3.073 1.166-7.188 2.192-10.339h-11.907c-3.21 22.379-7.081 44.098-11.594 65.175h13.787c.088-8.638 1.784-15.028 3.133-23.501 2.882-18.088 7.111-37.926 28.202-31.96.7-3.06.99-6.53 1.88-9.401zM297.035 78.022c-1.241-3.208-1.563-8.507-1.253-12.534.697-9.054 3.996-20.077 9.087-25.067 7.026-6.888 20.897-5.748 31.96-1.881.343-3.729 1.093-7.054 1.567-10.652-18.145-2.964-35.365-1.121-44.494 8.459-8.936 9.378-14.796 30.932-10.654 44.494 4.848 15.87 26.583 16.733 44.183 10.654.777-3.19 1.19-6.746 1.88-10.028-9.616 4.997-28.001 7.593-32.276-3.447zm-7.519-49.821c-11.948-4.825-21.339 3.329-25.693 10.967.987-3.398 1.394-7.378 2.192-10.967h-11.907c-2.91 22.575-7.201 43.769-11.28 65.175h13.475c1.888-12.707 2.703-29.834 6.892-41.988 3.348-9.713 12.111-17.987 24.754-13.473.178-3.583 1.203-6.318 1.567-9.714zM72.37 1.88c-1.925 12.489-4.093 24.735-6.267 36.974-13.959.147-28.211.69-41.674-.314 2.543-11.973 4.367-24.668 6.892-36.66H16.282C10.897 32.427 6 63.459-.012 93.377h15.353c2.409-15.348 4.661-30.852 7.833-45.435 13.091-.322 28.781-.885 41.362.314-2.594 15.162-5.728 29.783-8.147 45.121h15.354C76.675 62.38 81.874 31.649 88.037 1.88H72.37zm38.227 13.787c2.686-1.849 6.145-10.278 2.194-13.787-1.252-1.111-3.347-1.433-6.267-.939-2.71.457-4.268 1.377-5.327 2.819-1.703 2.319-3.263 9.31-.628 11.907 2.567 2.529 8.318 1.177 10.028 0z" fill="#fff"/></svg>